<svg width="105" height="17" viewBox="0 0 105 17" fill="none" xmlns="http://www.w3.org/2000/svg">
<path d="M6.6235 16.192C4.7035 16.192 3.1835 15.648 2.0635 14.56C0.9435 13.472 0.3835 11.992 0.3835 10.12C0.3835 8.888 0.6555 7.8 1.1995 6.856C1.7435 5.912 2.5035 5.184 3.4795 4.672C4.4715 4.16 5.5995 3.904 6.8635 3.904C7.5355 3.904 8.2075 3.992 8.8795 4.168C9.5515 4.344 10.1435 4.592 10.6555 4.912C11.1515 5.216 11.3995 5.68 11.3995 6.304C11.3995 6.8 11.2795 7.208 11.0395 7.528C10.8155 7.832 10.5195 7.984 10.1515 7.984C9.9115 7.984 9.6795 7.952 9.4555 7.888C9.2315 7.808 8.9835 7.696 8.7115 7.552C8.3915 7.408 8.1195 7.304 7.8955 7.24C7.6715 7.16 7.4235 7.12 7.1515 7.12C5.5675 7.12 4.7755 8.088 4.7755 10.024C4.7755 10.984 4.9755 11.72 5.3755 12.232C5.7915 12.728 6.3835 12.976 7.1515 12.976C7.4235 12.976 7.6715 12.944 7.8955 12.88C8.1355 12.8 8.3995 12.688 8.6875 12.544C9.0075 12.4 9.2635 12.296 9.4555 12.232C9.6635 12.152 9.8875 12.112 10.1275 12.112C10.4955 12.112 10.7915 12.272 11.0155 12.592C11.2555 12.896 11.3755 13.296 11.3755 13.792C11.3755 14.096 11.3115 14.376 11.1835 14.632C11.0555 14.872 10.8795 15.056 10.6555 15.184C9.5515 15.856 8.2075 16.192 6.6235 16.192ZM20.4235 3.952C20.9675 3.904 21.3995 4.032 21.7195 4.336C22.0395 4.624 22.1995 5.056 22.1995 5.632C22.1995 6.272 22.0475 6.736 21.7435 7.024C21.4555 7.312 20.9275 7.496 20.1595 7.576L19.4395 7.648C18.6395 7.744 18.0635 8 17.7115 8.416C17.3755 8.816 17.2075 9.368 17.2075 10.072V14.176C17.2075 14.832 16.9995 15.328 16.5835 15.664C16.1835 15.984 15.6795 16.144 15.0715 16.144C14.4635 16.144 13.9515 15.984 13.5355 15.664C13.1355 15.328 12.9355 14.832 12.9355 14.176V5.872C12.9355 5.264 13.1355 4.792 13.5355 4.456C13.9515 4.12 14.4475 3.952 15.0235 3.952C15.6155 3.952 16.0875 4.112 16.4395 4.432C16.8075 4.752 16.9915 5.2 16.9915 5.776V6.232C17.2475 5.528 17.6635 4.984 18.2395 4.6C18.8315 4.216 19.4475 4.008 20.0875 3.976L20.4235 3.952ZM27.529 16.192C26.457 16.192 25.553 16.112 24.817 15.952C24.081 15.792 23.433 15.536 22.873 15.184C22.649 15.072 22.473 14.88 22.345 14.608C22.217 14.336 22.153 14.032 22.153 13.696C22.153 13.264 22.265 12.912 22.489 12.64C22.729 12.352 23.025 12.208 23.377 12.208C23.617 12.208 23.841 12.24 24.049 12.304C24.257 12.352 24.513 12.44 24.817 12.568C25.329 12.744 25.777 12.88 26.161 12.976C26.561 13.072 27.065 13.12 27.673 13.12C28.105 13.12 28.441 13.064 28.681 12.952C28.937 12.824 29.065 12.648 29.065 12.424C29.065 12.248 29.001 12.112 28.873 12.016C28.761 11.92 28.537 11.832 28.201 11.752C27.865 11.656 27.297 11.528 26.497 11.368C25.073 11.096 24.041 10.688 23.401 10.144C22.777 9.584 22.465 8.8 22.465 7.792C22.465 7.056 22.689 6.392 23.137 5.8C23.601 5.208 24.233 4.744 25.033 4.408C25.833 4.072 26.729 3.904 27.721 3.904C28.441 3.904 29.137 3.992 29.809 4.168C30.497 4.344 31.105 4.592 31.633 4.912C32.129 5.2 32.377 5.664 32.377 6.304C32.377 6.752 32.257 7.128 32.017 7.432C31.777 7.736 31.481 7.888 31.129 7.888C30.713 7.888 30.217 7.752 29.641 7.48C29.257 7.304 28.913 7.176 28.609 7.096C28.321 7 27.977 6.952 27.577 6.952C27.177 6.952 26.865 7.016 26.641 7.144C26.417 7.256 26.305 7.424 26.305 7.648C26.305 7.904 26.457 8.104 26.761 8.248C27.081 8.392 27.705 8.552 28.633 8.728C30.185 9 31.281 9.416 31.921 9.976C32.561 10.52 32.881 11.312 32.881 12.352C32.881 13.52 32.393 14.456 31.417 15.16C30.457 15.848 29.161 16.192 27.529 16.192ZM41.5054 13.096C42.5774 13.16 43.1134 13.64 43.1134 14.536C43.1134 15.096 42.8974 15.512 42.4654 15.784C42.0334 16.056 41.4174 16.168 40.6174 16.12L39.9454 16.072C38.5054 15.96 37.4094 15.528 36.6574 14.776C35.9214 14.008 35.5534 12.944 35.5534 11.584V7.336H34.8574C33.5774 7.336 32.9374 6.808 32.9374 5.752C32.9374 4.712 33.5774 4.192 34.8574 4.192H35.5534V2.632C35.5534 2.024 35.7454 1.544 36.1294 1.192C36.5134 0.823999 37.0334 0.639999 37.6894 0.639999C38.3454 0.639999 38.8654 0.823999 39.2494 1.192C39.6334 1.544 39.8254 2.024 39.8254 2.632V4.192H41.1454C42.4254 4.192 43.0654 4.712 43.0654 5.752C43.0654 6.808 42.4254 7.336 41.1454 7.336H39.8254V11.944C39.8254 12.248 39.9134 12.504 40.0894 12.712C40.2814 12.92 40.5214 13.032 40.8094 13.048L41.5054 13.096ZM52.192 3.904C53.6 3.904 54.648 4.328 55.336 5.176C56.024 6.008 56.368 7.28 56.368 8.992V14.176C56.368 14.784 56.176 15.264 55.792 15.616C55.408 15.968 54.888 16.144 54.232 16.144C53.576 16.144 53.056 15.968 52.672 15.616C52.288 15.264 52.096 14.784 52.096 14.176V9.184C52.096 8.48 51.968 7.968 51.712 7.648C51.472 7.328 51.104 7.168 50.608 7.168C49.968 7.168 49.456 7.376 49.072 7.792C48.704 8.192 48.52 8.736 48.52 9.424V14.176C48.52 14.784 48.328 15.264 47.944 15.616C47.56 15.968 47.04 16.144 46.384 16.144C45.728 16.144 45.208 15.968 44.824 15.616C44.44 15.264 44.248 14.784 44.248 14.176V5.872C44.248 5.312 44.448 4.856 44.848 4.504C45.248 4.136 45.768 3.952 46.408 3.952C47.016 3.952 47.496 4.12 47.848 4.456C48.216 4.792 48.4 5.232 48.4 5.776C48.816 5.168 49.352 4.704 50.008 4.384C50.664 4.064 51.392 3.904 52.192 3.904ZM73.8513 3.904C75.1473 3.904 76.1473 4.296 76.8513 5.08C77.5553 5.848 77.9073 7.152 77.9073 8.992V14.176C77.9073 14.832 77.6993 15.328 77.2833 15.664C76.8833 15.984 76.3793 16.144 75.7713 16.144C75.1633 16.144 74.6513 15.984 74.2353 15.664C73.8353 15.328 73.6353 14.832 73.6353 14.176V8.896C73.6353 8.256 73.5233 7.808 73.2993 7.552C73.0753 7.296 72.7473 7.168 72.3153 7.168C71.7553 7.168 71.3073 7.368 70.9713 7.768C70.6353 8.168 70.4673 8.72 70.4673 9.424V14.176C70.4673 14.832 70.2673 15.328 69.8672 15.664C69.4673 15.984 68.9553 16.144 68.3313 16.144C67.7233 16.144 67.2113 15.984 66.7953 15.664C66.3953 15.328 66.1953 14.832 66.1953 14.176V8.896C66.1953 8.256 66.0833 7.808 65.8593 7.552C65.6353 7.296 65.3073 7.168 64.8753 7.168C64.3153 7.168 63.8673 7.368 63.5312 7.768C63.2113 8.168 63.0513 8.72 63.0513 9.424V14.176C63.0513 14.832 62.8433 15.328 62.4273 15.664C62.0273 15.984 61.5233 16.144 60.9153 16.144C60.3073 16.144 59.7953 15.984 59.3793 15.664C58.9793 15.328 58.7793 14.832 58.7793 14.176V5.872C58.7793 5.248 58.9873 4.776 59.4033 4.456C59.8353 4.12 60.3473 3.952 60.9393 3.952C61.4993 3.952 61.9633 4.104 62.3313 4.408C62.7153 4.696 62.9153 5.12 62.9313 5.68C63.7153 4.496 64.9153 3.904 66.5313 3.904C68.2433 3.904 69.3873 4.6 69.9633 5.992C70.3633 5.352 70.8993 4.848 71.5713 4.48C72.2433 4.096 73.0033 3.904 73.8513 3.904ZM85.8143 3.904C87.6383 3.904 88.9823 4.344 89.8463 5.224C90.7263 6.088 91.1663 7.408 91.1663 9.184V14.2C91.1663 14.808 90.9823 15.288 90.6143 15.64C90.2623 15.976 89.7663 16.144 89.1263 16.144C88.5663 16.144 88.1023 15.984 87.7343 15.664C87.3823 15.344 87.1903 14.912 87.1583 14.368C86.9343 14.944 86.5583 15.392 86.0303 15.712C85.5023 16.032 84.8703 16.192 84.1343 16.192C83.3183 16.192 82.5823 16.032 81.9263 15.712C81.2703 15.376 80.7503 14.92 80.3663 14.344C79.9983 13.752 79.8143 13.088 79.8143 12.352C79.8143 11.504 80.0303 10.832 80.4623 10.336C80.9103 9.824 81.6143 9.456 82.5743 9.232C83.5343 9.008 84.8303 8.896 86.4623 8.896H87.1103V8.608C87.1103 8.048 86.9823 7.648 86.7263 7.408C86.4703 7.152 86.0383 7.024 85.4303 7.024C84.7743 7.024 83.8143 7.248 82.5503 7.696C82.1823 7.824 81.8703 7.888 81.6143 7.888C81.2143 7.888 80.8943 7.744 80.6543 7.456C80.4143 7.168 80.2943 6.792 80.2943 6.328C80.2943 5.976 80.3663 5.688 80.5103 5.464C80.6543 5.24 80.8863 5.04 81.2063 4.864C81.7663 4.576 82.4703 4.344 83.3183 4.168C84.1663 3.992 84.9983 3.904 85.8143 3.904ZM85.1423 13.336C85.7183 13.336 86.1903 13.136 86.5583 12.736C86.9263 12.32 87.1103 11.792 87.1103 11.152V10.864H86.7263C85.7023 10.864 84.9743 10.96 84.5423 11.152C84.1103 11.328 83.8943 11.632 83.8943 12.064C83.8943 12.432 84.0063 12.736 84.2303 12.976C84.4703 13.216 84.7743 13.336 85.1423 13.336ZM99.2485 16.192C97.3285 16.192 95.8085 15.648 94.6885 14.56C93.5685 13.472 93.0085 11.992 93.0085 10.12C93.0085 8.888 93.2805 7.8 93.8245 6.856C94.3685 5.912 95.1285 5.184 96.1045 4.672C97.0965 4.16 98.2245 3.904 99.4885 3.904C100.161 3.904 100.833 3.992 101.505 4.168C102.177 4.344 102.769 4.592 103.281 4.912C103.777 5.216 104.025 5.68 104.025 6.304C104.025 6.8 103.905 7.208 103.665 7.528C103.441 7.832 103.145 7.984 102.777 7.984C102.537 7.984 102.305 7.952 102.081 7.888C101.857 7.808 101.609 7.696 101.337 7.552C101.017 7.408 100.745 7.304 100.521 7.24C100.297 7.16 100.049 7.12 99.7765 7.12C98.1925 7.12 97.4005 8.088 97.4005 10.024C97.4005 10.984 97.6005 11.72 98.0005 12.232C98.4165 12.728 99.0085 12.976 99.7765 12.976C100.049 12.976 100.297 12.944 100.521 12.88C100.761 12.8 101.025 12.688 101.313 12.544C101.633 12.4 101.889 12.296 102.081 12.232C102.289 12.152 102.513 12.112 102.753 12.112C103.121 12.112 103.417 12.272 103.641 12.592C103.881 12.896 104.001 13.296 104.001 13.792C104.001 14.096 103.937 14.376 103.809 14.632C103.681 14.872 103.505 15.056 103.281 15.184C102.177 15.856 100.833 16.192 99.2485 16.192Z" fill="#6B46C1"/>
</svg>
