<svg width="113" height="25" viewBox="0 0 113 25" fill="none" xmlns="http://www.w3.org/2000/svg">
<g filter="url(#filter0_d)">
<path d="M10.6235 18.192C8.7035 18.192 7.1835 17.648 6.0635 16.56C4.9435 15.472 4.3835 13.992 4.3835 12.12C4.3835 10.888 4.6555 9.8 5.1995 8.856C5.7435 7.912 6.5035 7.184 7.4795 6.672C8.4715 6.16 9.5995 5.904 10.8635 5.904C11.5355 5.904 12.2075 5.992 12.8795 6.168C13.5515 6.344 14.1435 6.592 14.6555 6.912C15.1515 7.216 15.3995 7.68 15.3995 8.304C15.3995 8.8 15.2795 9.208 15.0395 9.528C14.8155 9.832 14.5195 9.984 14.1515 9.984C13.9115 9.984 13.6795 9.952 13.4555 9.888C13.2315 9.808 12.9835 9.696 12.7115 9.552C12.3915 9.408 12.1195 9.304 11.8955 9.24C11.6715 9.16 11.4235 9.12 11.1515 9.12C9.5675 9.12 8.7755 10.088 8.7755 12.024C8.7755 12.984 8.9755 13.72 9.3755 14.232C9.7915 14.728 10.3835 14.976 11.1515 14.976C11.4235 14.976 11.6715 14.944 11.8955 14.88C12.1355 14.8 12.3995 14.688 12.6875 14.544C13.0075 14.4 13.2635 14.296 13.4555 14.232C13.6635 14.152 13.8875 14.112 14.1275 14.112C14.4955 14.112 14.7915 14.272 15.0155 14.592C15.2555 14.896 15.3755 15.296 15.3755 15.792C15.3755 16.096 15.3115 16.376 15.1835 16.632C15.0555 16.872 14.8795 17.056 14.6555 17.184C13.5515 17.856 12.2075 18.192 10.6235 18.192ZM24.4235 5.952C24.9675 5.904 25.3995 6.032 25.7195 6.336C26.0395 6.624 26.1995 7.056 26.1995 7.632C26.1995 8.272 26.0475 8.736 25.7435 9.024C25.4555 9.312 24.9275 9.496 24.1595 9.576L23.4395 9.648C22.6395 9.744 22.0635 10 21.7115 10.416C21.3755 10.816 21.2075 11.368 21.2075 12.072V16.176C21.2075 16.832 20.9995 17.328 20.5835 17.664C20.1835 17.984 19.6795 18.144 19.0715 18.144C18.4635 18.144 17.9515 17.984 17.5355 17.664C17.1355 17.328 16.9355 16.832 16.9355 16.176V7.872C16.9355 7.264 17.1355 6.792 17.5355 6.456C17.9515 6.12 18.4475 5.952 19.0235 5.952C19.6155 5.952 20.0875 6.112 20.4395 6.432C20.8075 6.752 20.9915 7.2 20.9915 7.776V8.232C21.2475 7.528 21.6635 6.984 22.2395 6.6C22.8315 6.216 23.4475 6.008 24.0875 5.976L24.4235 5.952ZM31.529 18.192C30.457 18.192 29.553 18.112 28.817 17.952C28.081 17.792 27.433 17.536 26.873 17.184C26.649 17.072 26.473 16.88 26.345 16.608C26.217 16.336 26.153 16.032 26.153 15.696C26.153 15.264 26.265 14.912 26.489 14.64C26.729 14.352 27.025 14.208 27.377 14.208C27.617 14.208 27.841 14.24 28.049 14.304C28.257 14.352 28.513 14.44 28.817 14.568C29.329 14.744 29.777 14.88 30.161 14.976C30.561 15.072 31.065 15.12 31.673 15.12C32.105 15.12 32.441 15.064 32.681 14.952C32.937 14.824 33.065 14.648 33.065 14.424C33.065 14.248 33.001 14.112 32.873 14.016C32.761 13.92 32.537 13.832 32.201 13.752C31.865 13.656 31.297 13.528 30.497 13.368C29.073 13.096 28.041 12.688 27.401 12.144C26.777 11.584 26.465 10.8 26.465 9.792C26.465 9.056 26.689 8.392 27.137 7.8C27.601 7.208 28.233 6.744 29.033 6.408C29.833 6.072 30.729 5.904 31.721 5.904C32.441 5.904 33.137 5.992 33.809 6.168C34.497 6.344 35.105 6.592 35.633 6.912C36.129 7.2 36.377 7.664 36.377 8.304C36.377 8.752 36.257 9.128 36.017 9.432C35.777 9.736 35.481 9.888 35.129 9.888C34.713 9.888 34.217 9.752 33.641 9.48C33.257 9.304 32.913 9.176 32.609 9.096C32.321 9 31.977 8.952 31.577 8.952C31.177 8.952 30.865 9.016 30.641 9.144C30.417 9.256 30.305 9.424 30.305 9.648C30.305 9.904 30.457 10.104 30.761 10.248C31.081 10.392 31.705 10.552 32.633 10.728C34.185 11 35.281 11.416 35.921 11.976C36.561 12.52 36.881 13.312 36.881 14.352C36.881 15.52 36.393 16.456 35.417 17.16C34.457 17.848 33.161 18.192 31.529 18.192ZM45.5054 15.096C46.5774 15.16 47.1134 15.64 47.1134 16.536C47.1134 17.096 46.8974 17.512 46.4654 17.784C46.0334 18.056 45.4174 18.168 44.6174 18.12L43.9454 18.072C42.5054 17.96 41.4094 17.528 40.6574 16.776C39.9214 16.008 39.5534 14.944 39.5534 13.584V9.336H38.8574C37.5774 9.336 36.9374 8.808 36.9374 7.752C36.9374 6.712 37.5774 6.192 38.8574 6.192H39.5534V4.632C39.5534 4.024 39.7454 3.544 40.1294 3.192C40.5134 2.824 41.0334 2.64 41.6894 2.64C42.3454 2.64 42.8654 2.824 43.2494 3.192C43.6334 3.544 43.8254 4.024 43.8254 4.632V6.192H45.1454C46.4254 6.192 47.0654 6.712 47.0654 7.752C47.0654 8.808 46.4254 9.336 45.1454 9.336H43.8254V13.944C43.8254 14.248 43.9134 14.504 44.0894 14.712C44.2814 14.92 44.5214 15.032 44.8094 15.048L45.5054 15.096ZM56.192 5.904C57.6 5.904 58.648 6.328 59.336 7.176C60.024 8.008 60.368 9.28 60.368 10.992V16.176C60.368 16.784 60.176 17.264 59.792 17.616C59.408 17.968 58.888 18.144 58.232 18.144C57.576 18.144 57.056 17.968 56.672 17.616C56.288 17.264 56.096 16.784 56.096 16.176V11.184C56.096 10.48 55.968 9.968 55.712 9.648C55.472 9.328 55.104 9.168 54.608 9.168C53.968 9.168 53.456 9.376 53.072 9.792C52.704 10.192 52.52 10.736 52.52 11.424V16.176C52.52 16.784 52.328 17.264 51.944 17.616C51.56 17.968 51.04 18.144 50.384 18.144C49.728 18.144 49.208 17.968 48.824 17.616C48.44 17.264 48.248 16.784 48.248 16.176V7.872C48.248 7.312 48.448 6.856 48.848 6.504C49.248 6.136 49.768 5.952 50.408 5.952C51.016 5.952 51.496 6.12 51.848 6.456C52.216 6.792 52.4 7.232 52.4 7.776C52.816 7.168 53.352 6.704 54.008 6.384C54.664 6.064 55.392 5.904 56.192 5.904ZM77.8513 5.904C79.1473 5.904 80.1473 6.296 80.8513 7.08C81.5553 7.848 81.9073 9.152 81.9073 10.992V16.176C81.9073 16.832 81.6993 17.328 81.2833 17.664C80.8833 17.984 80.3793 18.144 79.7713 18.144C79.1633 18.144 78.6513 17.984 78.2353 17.664C77.8353 17.328 77.6353 16.832 77.6353 16.176V10.896C77.6353 10.256 77.5233 9.808 77.2993 9.552C77.0753 9.296 76.7473 9.168 76.3153 9.168C75.7553 9.168 75.3073 9.368 74.9713 9.768C74.6353 10.168 74.4673 10.72 74.4673 11.424V16.176C74.4673 16.832 74.2673 17.328 73.8672 17.664C73.4673 17.984 72.9553 18.144 72.3313 18.144C71.7233 18.144 71.2113 17.984 70.7953 17.664C70.3953 17.328 70.1953 16.832 70.1953 16.176V10.896C70.1953 10.256 70.0833 9.808 69.8593 9.552C69.6353 9.296 69.3073 9.168 68.8753 9.168C68.3153 9.168 67.8673 9.368 67.5312 9.768C67.2113 10.168 67.0513 10.72 67.0513 11.424V16.176C67.0513 16.832 66.8433 17.328 66.4273 17.664C66.0273 17.984 65.5233 18.144 64.9153 18.144C64.3073 18.144 63.7953 17.984 63.3793 17.664C62.9793 17.328 62.7793 16.832 62.7793 16.176V7.872C62.7793 7.248 62.9873 6.776 63.4033 6.456C63.8353 6.12 64.3473 5.952 64.9393 5.952C65.4993 5.952 65.9633 6.104 66.3313 6.408C66.7153 6.696 66.9153 7.12 66.9313 7.68C67.7153 6.496 68.9153 5.904 70.5313 5.904C72.2433 5.904 73.3873 6.6 73.9633 7.992C74.3633 7.352 74.8993 6.848 75.5713 6.48C76.2433 6.096 77.0033 5.904 77.8513 5.904ZM89.8143 5.904C91.6383 5.904 92.9823 6.344 93.8463 7.224C94.7263 8.088 95.1663 9.408 95.1663 11.184V16.2C95.1663 16.808 94.9823 17.288 94.6143 17.64C94.2623 17.976 93.7663 18.144 93.1263 18.144C92.5663 18.144 92.1023 17.984 91.7343 17.664C91.3823 17.344 91.1903 16.912 91.1583 16.368C90.9343 16.944 90.5583 17.392 90.0303 17.712C89.5023 18.032 88.8703 18.192 88.1343 18.192C87.3183 18.192 86.5823 18.032 85.9263 17.712C85.2703 17.376 84.7503 16.92 84.3663 16.344C83.9983 15.752 83.8143 15.088 83.8143 14.352C83.8143 13.504 84.0303 12.832 84.4623 12.336C84.9103 11.824 85.6143 11.456 86.5743 11.232C87.5343 11.008 88.8303 10.896 90.4623 10.896H91.1103V10.608C91.1103 10.048 90.9823 9.648 90.7263 9.408C90.4703 9.152 90.0383 9.024 89.4303 9.024C88.7743 9.024 87.8143 9.248 86.5503 9.696C86.1823 9.824 85.8703 9.888 85.6143 9.888C85.2143 9.888 84.8943 9.744 84.6543 9.456C84.4143 9.168 84.2943 8.792 84.2943 8.328C84.2943 7.976 84.3663 7.688 84.5103 7.464C84.6543 7.24 84.8863 7.04 85.2063 6.864C85.7663 6.576 86.4703 6.344 87.3183 6.168C88.1663 5.992 88.9983 5.904 89.8143 5.904ZM89.1423 15.336C89.7183 15.336 90.1903 15.136 90.5583 14.736C90.9263 14.32 91.1103 13.792 91.1103 13.152V12.864H90.7263C89.7023 12.864 88.9743 12.96 88.5423 13.152C88.1103 13.328 87.8943 13.632 87.8943 14.064C87.8943 14.432 88.0063 14.736 88.2303 14.976C88.4703 15.216 88.7743 15.336 89.1423 15.336ZM103.249 18.192C101.329 18.192 99.8085 17.648 98.6885 16.56C97.5685 15.472 97.0085 13.992 97.0085 12.12C97.0085 10.888 97.2805 9.8 97.8245 8.856C98.3685 7.912 99.1285 7.184 100.105 6.672C101.097 6.16 102.225 5.904 103.489 5.904C104.161 5.904 104.833 5.992 105.505 6.168C106.177 6.344 106.769 6.592 107.281 6.912C107.777 7.216 108.025 7.68 108.025 8.304C108.025 8.8 107.905 9.208 107.665 9.528C107.441 9.832 107.145 9.984 106.777 9.984C106.537 9.984 106.305 9.952 106.081 9.888C105.857 9.808 105.609 9.696 105.337 9.552C105.017 9.408 104.745 9.304 104.521 9.24C104.297 9.16 104.049 9.12 103.777 9.12C102.193 9.12 101.401 10.088 101.401 12.024C101.401 12.984 101.601 13.72 102.001 14.232C102.417 14.728 103.009 14.976 103.777 14.976C104.049 14.976 104.297 14.944 104.521 14.88C104.761 14.8 105.025 14.688 105.313 14.544C105.633 14.4 105.889 14.296 106.081 14.232C106.289 14.152 106.513 14.112 106.753 14.112C107.121 14.112 107.417 14.272 107.641 14.592C107.881 14.896 108.001 15.296 108.001 15.792C108.001 16.096 107.937 16.376 107.809 16.632C107.681 16.872 107.505 17.056 107.281 17.184C106.177 17.856 104.833 18.192 103.249 18.192Z" fill="white"/>
</g>
<defs>
<filter id="filter0_d" x="0.383499" y="0.639999" width="111.641" height="23.552" filterUnits="userSpaceOnUse" color-interpolation-filters="sRGB">
<feFlood flood-opacity="0" result="BackgroundImageFix"/>
<feColorMatrix in="SourceAlpha" type="matrix" values="0 0 0 0 0 0 0 0 0 0 0 0 0 0 0 0 0 0 127 0"/>
<feOffset dy="2"/>
<feGaussianBlur stdDeviation="2"/>
<feColorMatrix type="matrix" values="0 0 0 0 0 0 0 0 0 0 0 0 0 0 0 0 0 0 0.25 0"/>
<feBlend mode="normal" in2="BackgroundImageFix" result="effect1_dropShadow"/>
<feBlend mode="normal" in="SourceGraphic" in2="effect1_dropShadow" result="shape"/>
</filter>
</defs>
</svg>
